<svg aria-hidden="true" style="position:absolute;width:0;height:0;overflow:hidden" xmlns="http://www.w3.org/2000/svg">
  <defs>
    <symbol id="icon-hamb" viewBox="0 0 32 32">
      <path d="M3.498 6.936c-.218.065-.503.358-.566.582a2.345 2.345 0 0 0 .003.98l-.003-.016c.066.235.349.515.591.585.25.072 24.699.072 24.959 0 .235-.066.515-.349.585-.591a2.282 2.282 0 0 0-.002-.969l.003.015c-.07-.242-.35-.525-.585-.591-.239-.066-24.762-.064-24.984.003zm0 5.333c-.218.065-.503.359-.566.583a2.345 2.345 0 0 0 .003.98l-.003-.016c.066.235.349.515.591.585.25.072 19.367.071 19.625-.001.235-.065.517-.349.585-.59a2.275 2.275 0 0 0-.002-.969l.003.015c-.069-.241-.35-.525-.585-.59-.238-.066-19.429-.064-19.65.002zm0 5.333c-.218.065-.503.359-.566.582a2.345 2.345 0 0 0 .003.98l-.003-.016c.066.235.349.517.591.585.25.072 24.699.072 24.959 0 .235-.065.515-.349.585-.59a2.29 2.29 0 0 0 0-.954c-.07-.241-.35-.525-.585-.59-.239-.066-24.762-.064-24.984.002zm0 5.334c-.218.065-.503.358-.566.582a2.345 2.345 0 0 0 .003.98l-.003-.016c.066.235.349.515.591.585.25.072 19.367.071 19.625 0 .235-.066.517-.349.585-.591a2.282 2.282 0 0 0-.002-.969l.003.015c-.069-.242-.35-.525-.585-.591-.238-.066-19.429-.063-19.65.003z"/>
    </symbol>
  </defs>
</svg>
