<svg xmlns="http://www.w3.org/2000/svg" aria-hidden="true" style="position:absolute;width:0;height:0;overflow:hidden">
  <defs>
<symbol id="icon-newmenu" viewBox="0 0 32 32">
<path d="M3.498 6.936c-0.218 0.065-0.503 0.358-0.566 0.582-0.066 0.242-0.066 0.722 0 0.965 0.066 0.235 0.349 0.515 0.591 0.585 0.25 0.072 24.699 0.072 24.959 0 0.235-0.066 0.515-0.349 0.585-0.591 0.067-0.234 0.067-0.719 0-0.953-0.070-0.242-0.35-0.525-0.585-0.591-0.239-0.066-24.762-0.064-24.984 0.003zM3.498 12.269c-0.218 0.065-0.503 0.359-0.566 0.583-0.066 0.242-0.066 0.722 0 0.965 0.066 0.235 0.349 0.515 0.591 0.585 0.25 0.072 19.367 0.071 19.625-0.001 0.235-0.065 0.517-0.349 0.585-0.59 0.067-0.234 0.067-0.719 0-0.954-0.069-0.241-0.35-0.525-0.585-0.59-0.238-0.066-19.429-0.064-19.65 0.002zM3.498 17.602c-0.218 0.065-0.503 0.359-0.566 0.582-0.066 0.242-0.066 0.722 0 0.965 0.066 0.235 0.349 0.517 0.591 0.585 0.25 0.072 24.699 0.072 24.959 0 0.235-0.065 0.515-0.349 0.585-0.59 0.067-0.235 0.067-0.72 0-0.954-0.070-0.241-0.35-0.525-0.585-0.59-0.239-0.066-24.762-0.064-24.984 0.002zM3.498 22.936c-0.218 0.065-0.503 0.358-0.566 0.582-0.066 0.242-0.066 0.722 0 0.965 0.066 0.235 0.349 0.515 0.591 0.585 0.25 0.072 19.367 0.071 19.625 0 0.235-0.066 0.517-0.349 0.585-0.591 0.067-0.234 0.067-0.719 0-0.953-0.069-0.242-0.35-0.525-0.585-0.591-0.238-0.066-19.429-0.063-19.65 0.003z"></path>
</symbol>
<symbol id="icon-sl" viewBox="0 0 25 32"><path d="M22.815 8.593h-4.444v-1.481c0-1.572-0.624-3.079-1.736-4.19s-2.619-1.736-4.19-1.736c-1.572 0-3.079 0.624-4.19 1.736s-1.736 2.619-1.736 4.19v1.481h-4.444c-0.393 0-0.77 0.156-1.048 0.434s-0.434 0.655-0.434 1.048v16.296c0 1.179 0.468 2.309 1.302 3.143s1.964 1.302 3.143 1.302h14.815c1.179 0 2.309-0.468 3.143-1.302s1.302-1.964 1.302-3.143v-16.296c0-0.393-0.156-0.77-0.434-1.048s-0.655-0.434-1.047-0.434zM9.482 7.111c0-0.786 0.312-1.539 0.868-2.095s1.309-0.868 2.095-0.868c0.786 0 1.539 0.312 2.095 0.868s0.868 1.309 0.868 2.095v1.481h-5.926v-1.481zM21.333 26.37c0 0.393-0.156 0.77-0.434 1.047s-0.655 0.434-1.048 0.434h-14.815c-0.393 0-0.77-0.156-1.048-0.434s-0.434-0.655-0.434-1.047v-14.815h2.963v1.481c0 0.393 0.156 0.77 0.434 1.048s0.655 0.434 1.048 0.434c0.393 0 0.77-0.156 1.048-0.434s0.434-0.655 0.434-1.048v-1.481h5.926v1.481c0 0.393 0.156 0.77 0.434 1.048s0.655 0.434 1.048 0.434c0.393 0 0.77-0.156 1.048-0.434s0.434-0.655 0.434-1.048v-1.481h2.963v14.815z"></path></symbol>
<symbol id="icon-logo" viewBox="0 0 32 32"><path fill="#f6f6f6" d="m0 0 16.343 16.171L32 32V0H0z" style="fill:var(--color3, #f6f6f6)"/><path fill="#f6f6f6" d="M4.457 4.229 16.4 16.058l11.257 11.486h-23.2V4.23z" style="fill:var(--color3, #f6f6f6)"/><path fill="#4f2ee8" d="M27.733 27.618 15.79 15.789 4.533 4.303h23.2v23.314z" style="fill:var(--color4, #4f2ee8)"/><path fill="#4f2ee8" d="m9.257 9.029 13.6 13.6h-13.6v-13.6z" style="fill:var(--color4, #4f2ee8)"/><path fill="#f6f6f6" d="m9.257 9.029 13.6 13.6v-13.6h-13.6z" style="fill:var(--color3, #f6f6f6)"/></symbol>
    <symbol id="icon-arrow-right" viewBox="0 0 32 32">
      <path fill="none" stroke="#eac645" stroke-linecap="round" stroke-linejoin="round" stroke-width="4" d="M2.667 16h26.667m-.001 0-10-10m10 10-10 10" style="stroke:var(--color1, #eac645)"/>
    </symbol>
    <symbol id="icon-arrow-up" viewBox="0 0 32 32">
      <path fill="#fff" d="M.631 21.389 14.778 7.2c.168-.168.351-.287.547-.357.197-.071.407-.106.632-.106s.435.035.632.106c.197.07.379.189.547.357l14.189 14.189c.393.393.589.884.589 1.474s-.211 1.095-.632 1.516c-.421.421-.912.632-1.474.632s-1.053-.211-1.474-.632L15.955 12 3.576 24.379a1.973 1.973 0 0 1-1.452.589c-.576 0-1.075-.211-1.496-.632s-.632-.912-.632-1.474c0-.561.211-1.053.632-1.474z" style="fill:var(--color2, #fff)"/>
    </symbol>
    <symbol id="icon-dump" viewBox="0 0 32 32">
      <path fill="#4f2ee8" d="M32 16c0 8.837-7.163 16-16 16S0 24.837 0 16 7.163 0 16 0s16 7.163 16 16z" style="fill:var(--color3, #4f2ee8)"/>
      <path fill="none" stroke="#fff" stroke-linecap="round" stroke-linejoin="round" stroke-width="1.684" d="M13.684 9.053h4.632m-9.263 2.315h13.895m-1.544 0-.541 8.12c-.081 1.218-.122 1.827-.385 2.289a2.322 2.322 0 0 1-1.002.938c-.478.232-1.089.232-2.31.232h-2.33c-1.221 0-1.832 0-2.31-.232a2.31 2.31 0 0 1-1.002-.938c-.263-.462-.304-1.071-.385-2.289l-.541-8.12m3.858 3.474v3.86m3.088-3.86v3.86" style="stroke:var(--color2, #fff)"/>
    </symbol>
    <symbol id="icon-lock" viewBox="0 0 32 32">
      <path stroke-linecap="round" stroke-linejoin="round" stroke-width="2.286" d="M22.667 14.667v-4a6.667 6.667 0 0 0-13.334 0v4M10.4 28h11.2c2.24 0 3.36 0 4.216-.436a3.991 3.991 0 0 0 1.748-1.748C28 24.96 28 23.84 28 21.6v-.533c0-2.24 0-3.36-.436-4.216a3.991 3.991 0 0 0-1.748-1.748c-.856-.436-1.976-.436-4.216-.436H10.4c-2.24 0-3.36 0-4.216.436a3.996 3.996 0 0 0-1.748 1.748C4 17.707 4 18.827 4 21.067v.533c0 2.24 0 3.36.436 4.216a3.991 3.991 0 0 0 1.748 1.748C7.04 28 8.16 28 10.4 28z"/>
    </symbol>
    <symbol id="icon-mail" viewBox="0 0 32 32">
      <path stroke-linecap="round" stroke-linejoin="round" stroke-width="2.286" d="m28.666 24-8.857-8m-7.619 0-8.857 8M2.667 9.333l10.887 7.621c.882.617 1.322.926 1.802 1.045.423.106.866.106 1.29 0 .479-.12.92-.428 1.802-1.045l10.887-7.621M9.067 26.667h13.867c2.24 0 3.36 0 4.216-.436a3.996 3.996 0 0 0 1.748-1.748c.436-.856.436-1.976.436-4.216v-8.533c0-2.24 0-3.36-.436-4.216A3.991 3.991 0 0 0 27.15 5.77c-.856-.436-1.976-.436-4.216-.436H9.067c-2.24 0-3.36 0-4.216.436a3.991 3.991 0 0 0-1.748 1.748c-.436.856-.436 1.976-.436 4.216v8.533c0 2.24 0 3.36.436 4.216a3.996 3.996 0 0 0 1.748 1.748c.856.436 1.976.436 4.216.436z"/>
    </symbol>
    <symbol id="icon-user" viewBox="0 0 32 32">
      <path fill="#f6f6f6" d="M32 16c0 8.837-7.163 16-16 16S0 24.837 0 16 7.163 0 16 0s16 7.163 16 16z" style="fill:var(--color4, #f6f6f6)"/>
      <path fill="#4f2ee8" d="M10.523 22.847a5.477 5.477 0 1 1 10.954 0H10.522zM16 16.685c-2.27 0-4.108-1.838-4.108-4.108S13.73 8.469 16 8.469c2.27 0 4.108 1.838 4.108 4.108S18.27 16.685 16 16.685z" style="fill:var(--color3, #4f2ee8)"/>
    </symbol>
    <symbol id="icon-bin" viewBox="0 0 32 32">
    <path d="M4 10v20c0 1.1 0.9 2 2 2h18c1.1 0 2-0.9 2-2v-20h-22zM10 28h-2v-14h2v14zM14 28h-2v-14h2v14zM18 28h-2v-14h2v14zM22 28h-2v-14h2v14z"></path>
    <path d="M26.5 4h-6.5v-2.5c0-0.825-0.675-1.5-1.5-1.5h-7c-0.825 0-1.5 0.675-1.5 1.5v2.5h-6.5c-0.825 0-1.5 0.675-1.5 1.5v2.5h26v-2.5c0-0.825-0.675-1.5-1.5-1.5zM18 4h-6v-1.975h6v1.975z"></path>
   </symbol>
    
    <symbol id="icon-menu" viewBox="0 0 32 32">
<path stroke-linejoin="round" stroke-linecap="round" stroke-miterlimit="4" stroke-width="2.2857" d="M22.667 13.333h-18.667"></path>
<path stroke-linejoin="round" stroke-linecap="round" stroke-miterlimit="4" stroke-width="2.2857" d="M28 8h-24"></path>
<path stroke-linejoin="round" stroke-linecap="round" stroke-miterlimit="4" stroke-width="2.2857" d="M28 18.667h-24"></path>
<path stroke-linejoin="round" stroke-linecap="round" stroke-miterlimit="4" stroke-width="2.2857" d="M22.667 24h-18.667"></path>
</symbol>
<symbol id="icon-trash" viewBox="0 0 32 32">
<path stroke-linejoin="round" stroke-linecap="round" stroke-miterlimit="4" stroke-width="3" d="M11.5 2.5h9M2.5 7h27M26.5 7l-1.052 15.779c-0.158 2.367-0.237 3.551-0.748 4.449-0.45 0.79-1.129 1.425-1.948 1.822-0.929 0.45-2.116 0.45-4.488 0.45h-4.528c-2.373 0-3.559 0-4.488-0.45-0.818-0.397-1.497-1.032-1.948-1.822-0.511-0.898-0.59-2.081-0.748-4.449l-1.052-15.779M13 13.75v7.5M19 13.75v7.5"></path>
</symbol>

  </defs>
</svg>
